<svg xmlns="http://www.w3.org/2000/svg" width="48" height="48" viewBox="0 0 48 48">
  <g id="Group_489" data-name="Group 489" transform="translate(-1448.095 -72.11)">
    <rect id="Rectangle_1189" data-name="Rectangle 1189" width="48" height="48" transform="translate(1448.095 72.11)" fill="#fff" opacity="0"/>
    <g id="Group_488" data-name="Group 488" transform="translate(1448.095 75.995)">
      <g id="Group_486" data-name="Group 486" transform="translate(11.629 14.151)">
        <rect id="Rectangle_1190" data-name="Rectangle 1190" width="6.371" height="10.928" fill="#2699fb"/>
      </g>
      <g id="Group_487" data-name="Group 487" transform="translate(32.291 28.654)">
        <path id="Path_635" data-name="Path 635" d="M1492.793,119.591v2.053h-6.371V110.716h6.371v6.033" transform="translate(-1486.423 -110.716)" fill="#2699fb"/>
        <path id="Path_636" data-name="Path 636" d="M1490.006,123.01" transform="translate(-1486.821 -112.082)" fill="#2699fb"/>
        <path id="Path_637" data-name="Path 637" d="M1490.006,110.9" transform="translate(-1486.821 -110.737)" fill="#2699fb"/>
        <path id="Path_638" data-name="Path 638" d="M1486.519,114.912" transform="translate(-1486.434 -111.182)" fill="#2699fb"/>
        <path id="Path_639" data-name="Path 639" d="M1486.519,119.08" transform="translate(-1486.434 -111.645)" fill="#2699fb"/>
        <path id="Path_640" data-name="Path 640" d="M1493.493,120.055" transform="translate(-1487.208 -111.754)" fill="#2699fb"/>
      </g>
      <path id="Path_641" data-name="Path 641" d="M1483.385,111.993v.947a.648.648,0,0,0,1.3,0v-.947a.648.648,0,0,0-1.3,0Zm-30.831-19.282a.642.642,0,0,0,.385-.127l1.026-.758v5.186a.648.648,0,1,0,1.3,0V91.1a.634.634,0,0,0-.041-.2l9.8-7.243,9.329,6.89v8.614a.648.648,0,1,0,1.3,0V91.5l1.382,1.02a.649.649,0,0,0,.856-.076l1.811-1.911a.649.649,0,0,0-.076-.959l-14.211-10.965a.638.638,0,0,0-.834.052c-.006,0-.013.005-.019.01l-14.207,10.964a.649.649,0,0,0-.076.959l1.811,1.912A.649.649,0,0,0,1452.554,92.711Zm12.467-12.76,13.236,10.214-.921.973L1465.4,82.324a.64.64,0,0,0-.772.014c-.006,0-.013,0-.019.009L1452.629,91.2l-.921-.973Zm-10.368,18.918a.649.649,0,0,0-.649.649v.426a.649.649,0,0,0,1.3,0v-.426A.649.649,0,0,0,1454.652,98.869Zm40.593,7.522a.648.648,0,0,0,.862-.071l1.81-1.911a.649.649,0,0,0-.068-.955L1486,94.065a.642.642,0,0,0-.847.052c-.006,0-.013.005-.02.01l-11.843,9.389a.648.648,0,0,0-.069.954l1.81,1.911a.651.651,0,0,0,.472.2.642.642,0,0,0,.39-.132l9.709-7.34,8.109,6.125v12.178h-4.311v-1.4a.648.648,0,1,0-1.3,0v1.4h-5.074v-9.631h5.074v5.384a.648.648,0,1,0,1.3,0v-6.033a.648.648,0,0,0-.648-.649h-6.371a.649.649,0,0,0-.649.649v10.28h-6.093v-7.388a.649.649,0,0,0-.648-.649h-19.735v-7.046a.648.648,0,1,0-1.3,0v15.083h-2.406a.648.648,0,1,0,0,1.3h45.393a.648.648,0,1,0,0-1.3h-1.937v-11.2Zm-20.9,11.023h-19.086v-6.739h19.086Zm11.646-19.638a.641.641,0,0,0-.78.012c-.007.005-.015.006-.022.011l-9.612,7.268-.924-.975,10.954-8.684,10.88,8.623-.924.975Zm-24.269-5.793a.649.649,0,0,0-.649.648v10.928a.649.649,0,0,0,.649.649h6.37a.649.649,0,0,0,.649-.649V92.631a.649.649,0,0,0-.649-.648Zm2.536,10.927h-1.888v-2.2h1.888Zm0-3.493h-1.888V97.01h1.888Zm0-3.7h-1.888V93.28h1.888Zm3.185,7.2h-1.888v-2.2h1.888Zm0-3.493h-1.888V97.01h1.888Zm0-3.7h-1.888V93.28h1.888Z" transform="translate(-1450.095 -78.48)" fill="#113d57"/>
    </g>
  </g>
</svg>
