<svg xmlns="http://www.w3.org/2000/svg" width="48" height="48" viewBox="0 0 48 48">
  <g id="Group_517" data-name="Group 517" transform="translate(-1443.309 -152.067)">
    <rect id="Rectangle_1201" data-name="Rectangle 1201" width="48" height="48" transform="translate(1443.309 152.067)" fill="#fff" opacity="0"/>
    <g id="Group_509" data-name="Group 509" transform="translate(1444.965 154.453)">
      <path id="Path_651" data-name="Path 651" d="M1465.675,174.924l-8.937,5.386a.6.6,0,0,0,.623,1.035l8.936-5.387a.6.6,0,1,0-.622-1.034Zm-10.785,6.537-.215.13a.6.6,0,1,0,.623,1.034l.215-.13a.6.6,0,1,0-.623-1.034Zm27.8-16.988a10.954,10.954,0,0,0-1.227-2.932,10.91,10.91,0,0,0-20.184,6.927l-3.583,2.138a.607.607,0,0,0-.267.339l-.674,2.168-2.342-.3a.615.615,0,0,0-.654.425l-.581,1.931-2.338-.3a.613.613,0,0,0-.653.425l-.589,1.957-2.691-.19a.612.612,0,0,0-.638.5l-.951,5.591a.6.6,0,0,0,.394.671l4.51,1.593a.607.607,0,0,0,.2.035.6.6,0,0,0,.314-.089l2.422-1.481a.6.6,0,0,0-.629-1.03l-2.178,1.33-3.76-1.328.774-4.55,2.627.185a.6.6,0,0,0,.621-.429l.581-1.93,2.338.3a.609.609,0,0,0,.653-.425l.581-1.931,2.338.3a.611.611,0,0,0,.652-.42l.756-2.431,3.76-2.244a.6.6,0,0,0,.222-.794,9.708,9.708,0,0,1,19.024-3.714.6.6,0,1,0,1.17-.3Z" transform="translate(-1445.309 -155.173)" fill="#113d57"/>
      <path id="Path_652" data-name="Path 652" d="M1467.8,193.981l-.151.2a.6.6,0,1,0,.965.726l.151-.2a.6.6,0,0,0-.966-.726Zm17.079-12.5a9.683,9.683,0,0,1-8.841,2.195h0a.6.6,0,0,0-.692.194l-6.26,8.348a.6.6,0,1,0,.966.725l6.024-8.034a10.751,10.751,0,0,0,9.616-2.529.6.6,0,1,0-.809-.9Zm.074-15.944a10.911,10.911,0,0,0-16.107,14l-2.518,3.327a.6.6,0,0,0-.121.415l.189,2.263-2.282.6a.606.606,0,0,0-.447.64l.186,2.008-2.277.6a.605.605,0,0,0-.447.64l.19,2.035-2.566.835a.605.605,0,0,0-.4.7l1.217,5.54a.6.6,0,0,0,.59.474h.027l4.779-.218a.6.6,0,0,0,.458-.243l1.69-2.282a.6.6,0,0,0-.971-.718l-1.519,2.051-3.985.181-.991-4.51,2.5-.814a.605.605,0,0,0,.415-.631l-.186-2.007,2.277-.6a.605.605,0,0,0,.447-.64l-.186-2.007,2.277-.6a.6.6,0,0,0,.446-.634l-.211-2.537,2.642-3.492a.6.6,0,0,0-.094-.821,9.706,9.706,0,1,1,17.3-.915.6.6,0,1,0,1.1.489A10.862,10.862,0,0,0,1484.956,165.541Zm1.322,14.334-.151.2a.6.6,0,0,0,.121.846.6.6,0,0,0,.362.121.605.605,0,0,0,.483-.241l.151-.2a.6.6,0,0,0-.965-.726Z" transform="translate(-1447.556 -156.399)" fill="#2699fb"/>
      <g id="Group_508" data-name="Group 508" transform="translate(30.493)">
        <path id="Path_653" data-name="Path 653" d="M1482.586,156.831a8.447,8.447,0,1,1,6.5,14.927,8.538,8.538,0,0,1-1.2.086,8.382,8.382,0,0,1-5.059-1.7c-.159-.119-.313-.244-.463-.373a.6.6,0,0,1,.791-.913c.127.11.26.218.4.32a7.239,7.239,0,1,0,.261-11.76" transform="translate(-1482.156 -154.95)" fill="#113d57"/>
      </g>
      <path id="Path_654" data-name="Path 654" d="M1485.776,170.979a2.61,2.61,0,1,0,.517,3.655A2.614,2.614,0,0,0,1485.776,170.979Z" transform="translate(-1451.566 -157.623)" fill="#2699fb"/>
    </g>
  </g>
</svg>
