<svg id="logo" xmlns="http://www.w3.org/2000/svg" width="170.154" height="62" viewBox="0 0 170.154 62">
  <g id="Layer_1" data-name="Layer 1">
    <path id="Path_268" data-name="Path 268" d="M283.814,232.086l-.292-.719H281.91l-.293.719h-.758l1.52-3.836h.671l1.527,3.836Zm-1.1-2.838-.58,1.5h1.156Z" transform="translate(-213.707 -173.692)" fill="#2da0e3"/>
    <path id="Path_269" data-name="Path 269" d="M313.759,228.22h.719v3.817l-.062.031-2.587-2.311v2.306h-.719v-3.817l.057-.026,2.594,2.311Z" transform="translate(-236.724 -173.669)" fill="#2da0e3"/>
    <path id="Path_270" data-name="Path 270" d="M332.32,228.22h2.369v.616h-1.625v.978h1.417v.611h-1.417v1.019h1.625v.619H332.32Z" transform="translate(-252.861 -173.669)" fill="#2da0e3"/>
    <path id="Path_271" data-name="Path 271" d="M351.046,231.269h.062l.523-3.069h.734l-.719,3.836h-1.084l-.479-2.608h-.072l-.479,2.608h-1.081l-.719-3.836h.736l.518,3.069h.062l.6-3.069h.815Z" transform="translate(-264.59 -173.654)" fill="#2da0e3"/>
    <path id="Path_272" data-name="Path 272" d="M383.065,231.887a2.027,2.027,0,0,1-.463-.053,1.946,1.946,0,0,1-.4-.141,1.7,1.7,0,0,1-.316-.2.976.976,0,0,1-.213-.24l.527-.429a1.059,1.059,0,0,0,.352.264,1.156,1.156,0,0,0,.515.113.719.719,0,0,0,.436-.11.321.321,0,0,0,.144-.266.381.381,0,0,0-.086-.24.822.822,0,0,0-.307-.2l-.688-.319a1.777,1.777,0,0,1-.688-.479,1.012,1.012,0,0,1-.211-.64.983.983,0,0,1,.093-.427,1,1,0,0,1,.266-.338,1.277,1.277,0,0,1,.412-.221,1.635,1.635,0,0,1,.535-.082,1.489,1.489,0,0,1,.59.108,1.278,1.278,0,0,1,.42.276,1.119,1.119,0,0,1,.24.384,1.178,1.178,0,0,1,.082.424h-.7a.538.538,0,0,0-.026-.117.554.554,0,0,0-.1-.175.628.628,0,0,0-.2-.156.674.674,0,0,0-.324-.07.69.69,0,0,0-.417.113.34.34,0,0,0-.149.28.328.328,0,0,0,.105.24,1.023,1.023,0,0,0,.271.18l.707.324a1.889,1.889,0,0,1,.681.479.993.993,0,0,1,.223.659.959.959,0,0,1-.108.465.985.985,0,0,1-.29.331,1.227,1.227,0,0,1-.427.2A1.858,1.858,0,0,1,383.065,231.887Z" transform="translate(-290.411 -173.41)" fill="#2da0e3"/>
    <path id="Path_273" data-name="Path 273" d="M400.279,230.918v1.167h-.719V228.25h1.369a1.323,1.323,0,0,1,1.244.815,1.335,1.335,0,0,1-.719,1.757,1.311,1.311,0,0,1-.523.1Zm.607-.616a.7.7,0,0,0,.278-.058.719.719,0,0,0,.24-.153.756.756,0,0,0,.156-.24.748.748,0,0,0-.156-.8.736.736,0,0,0-.24-.156.7.7,0,0,0-.278-.058h-.607v1.438Z" transform="translate(-304.025 -173.692)" fill="#2da0e3"/>
    <path id="Path_274" data-name="Path 274" d="M416.49,228.836v-.616h2.081v.616H417.9v2.608h.669v.618H416.49v-.618h.669v-2.608Z" transform="translate(-316.906 -173.669)" fill="#2da0e3"/>
    <path id="Path_275" data-name="Path 275" d="M434.6,228.22h.719v3.817l-.062.031-2.587-2.311v2.306h-.719v-3.817l.058-.026,2.592,2.311Z" transform="translate(-328.671 -173.669)" fill="#2da0e3"/>
    <path id="Path_276" data-name="Path 276" d="M461.32,229.925a1.886,1.886,0,0,1,.163-.772,1.972,1.972,0,0,1,.424-.63,2.047,2.047,0,0,1,.63-.427,1.973,1.973,0,0,1,1.537,0,2.011,2.011,0,0,1,1.052,1.057,1.973,1.973,0,0,1,0,1.537,2.046,2.046,0,0,1-.427.63,2.013,2.013,0,0,1-.63.424,1.944,1.944,0,0,1-1.537,0,2.043,2.043,0,0,1-.631-.424,2,2,0,0,1-.424-.63,1.889,1.889,0,0,1-.158-.765Zm.719,0a1.2,1.2,0,0,0,.1.479,1.259,1.259,0,0,0,.666.666,1.192,1.192,0,0,0,.959,0,1.273,1.273,0,0,0,.669-.666,1.249,1.249,0,0,0-.271-1.374,1.273,1.273,0,0,0-.4-.271,1.245,1.245,0,0,0-.479-.1,1.23,1.23,0,0,0-.479.1,1.274,1.274,0,0,0-.4.271,1.225,1.225,0,0,0-.268.4,1.184,1.184,0,0,0-.094.494Z" transform="translate(-351.02 -173.457)" fill="#2da0e3"/>
    <path id="Path_277" data-name="Path 277" d="M486.666,228.22h.719v3.817l-.062.031-2.6-2.311v2.306H484v-3.817l.058-.026,2.592,2.311Z" transform="translate(-368.276 -173.669)" fill="#2da0e3"/>
    <path id="Path_278" data-name="Path 278" d="M513.79,228.836v-.616h2.081v.616H515.2v2.608h.669v.618H513.79v-.618h.669v-2.608Z" transform="translate(-390.941 -173.669)" fill="#2da0e3"/>
    <path id="Path_279" data-name="Path 279" d="M531.872,228.22h.719v3.817l-.062.031-2.589-2.311v2.306h-.719v-3.817l.058-.026,2.592,2.311Z" transform="translate(-402.684 -173.669)" fill="#2da0e3"/>
    <path id="Path_280" data-name="Path 280" d="M551.4,231.887a2.04,2.04,0,0,1-.463-.053,2,2,0,0,1-.4-.141,1.7,1.7,0,0,1-.317-.2,1.03,1.03,0,0,1-.213-.24l.527-.429a1.047,1.047,0,0,0,.355.264,1.146,1.146,0,0,0,.513.113.705.705,0,0,0,.436-.11.321.321,0,0,0,.144-.266.381.381,0,0,0-.086-.24.832.832,0,0,0-.3-.2l-.69-.319a1.8,1.8,0,0,1-.688-.479,1.012,1.012,0,0,1-.211-.64.984.984,0,0,1,.094-.427,1,1,0,0,1,.266-.338,1.292,1.292,0,0,1,.415-.221,1.619,1.619,0,0,1,.532-.082,1.479,1.479,0,0,1,.59.108,1.277,1.277,0,0,1,.419.276,1.119,1.119,0,0,1,.24.384,1.177,1.177,0,0,1,.082.424h-.7a.424.424,0,0,0-.026-.117.51.51,0,0,0-.1-.175.628.628,0,0,0-.2-.156.805.805,0,0,0-.738.043.334.334,0,0,0-.149.281.326.326,0,0,0,.1.24,1.022,1.022,0,0,0,.271.18l.719.324a1.9,1.9,0,0,1,.683.479,1,1,0,0,1,.22.659.942.942,0,0,1-.4.8,1.214,1.214,0,0,1-.424.2A1.889,1.889,0,0,1,551.4,231.887Z" transform="translate(-418.501 -173.41)" fill="#2da0e3"/>
    <path id="Path_281" data-name="Path 281" d="M567.782,230.394a1.113,1.113,0,0,0,.079.424.973.973,0,0,0,.213.328.96.96,0,0,0,.319.211.983.983,0,0,0,.393.077.971.971,0,0,0,.391-.077.938.938,0,0,0,.319-.211.979.979,0,0,0,.216-.328,1.116,1.116,0,0,0,.079-.424V228.22h.719v2.174a1.7,1.7,0,0,1-.506,1.22,1.8,1.8,0,0,1-.549.369,1.7,1.7,0,0,1-1.338,0,1.742,1.742,0,0,1-.549-.369,1.709,1.709,0,0,1-.508-1.22V228.22h.719Z" transform="translate(-431.477 -173.669)" fill="#2da0e3"/>
    <path id="Path_282" data-name="Path 282" d="M588.719,232.086H588V228.25h1.645a1.2,1.2,0,0,1,1.2,1.2,1.153,1.153,0,0,1-.17.623,1.2,1.2,0,0,1-.451.436l.58,1.575h-.753l-.523-1.438h-.808Zm.858-2.045a.539.539,0,0,0,.24-.048.551.551,0,0,0,.184-.127.677.677,0,0,0,.127-.187.571.571,0,0,0,.046-.24.577.577,0,0,0-.046-.24.646.646,0,0,0-.127-.187.626.626,0,0,0-.185-.125.576.576,0,0,0-.24-.048h-.858v1.182Z" transform="translate(-447.48 -173.692)" fill="#2da0e3"/>
    <path id="Path_283" data-name="Path 283" d="M608.134,232.086l-.292-.719H606.23l-.292.719h-.758l1.52-3.836h.664l1.527,3.836Zm-1.1-2.838-.58,1.5h1.165Z" transform="translate(-460.541 -173.692)" fill="#2da0e3"/>
    <path id="Path_284" data-name="Path 284" d="M628.911,228.22h.719v3.817l-.065.031-2.587-2.311v2.306h-.719v-3.817l.06-.026,2.592,2.311Z" transform="translate(-476.567 -173.669)" fill="#2da0e3"/>
    <path id="Path_285" data-name="Path 285" d="M647.619,229.96a1.281,1.281,0,0,0,.1.513,1.2,1.2,0,0,0,.273.408,1.282,1.282,0,0,0,.923.372,1.122,1.122,0,0,0,.479-.108,1.531,1.531,0,0,0,.41-.278l.465.5a1.815,1.815,0,0,1-.614.42,1.994,1.994,0,0,1-2.182-.42,1.966,1.966,0,0,1-.575-1.4,2.023,2.023,0,0,1,.151-.784,1.9,1.9,0,0,1,.42-.626,1.938,1.938,0,0,1,.626-.42,2,2,0,0,1,.779-.151,1.918,1.918,0,0,1,1.4.575l-.479.5a1.526,1.526,0,0,0-.405-.273,1.122,1.122,0,0,0-.479-.108,1.367,1.367,0,0,0-.52.1,1.236,1.236,0,0,0-.41.271,1.2,1.2,0,0,0-.268.41A1.339,1.339,0,0,0,647.619,229.96Z" transform="translate(-492.259 -173.486)" fill="#2da0e3"/>
    <path id="Path_286" data-name="Path 286" d="M667.54,228.22h2.369v.616h-1.625v.978H669.7v.611h-1.417v1.019h1.625v.619H667.54Z" transform="translate(-507.951 -173.669)" fill="#2da0e3"/>
    <path id="Path_287" data-name="Path 287" d="M291.392,116.435a14.863,14.863,0,0,1-3.5-.393,14.429,14.429,0,0,1-3-1.067,12.051,12.051,0,0,1-2.4-1.52,7.535,7.535,0,0,1-1.621-1.8l3.989-3.239a7.971,7.971,0,0,0,2.666,1.995,8.63,8.63,0,0,0,3.9.849,5.4,5.4,0,0,0,3.3-.829,2.482,2.482,0,0,0,1.088-2.016,2.877,2.877,0,0,0-.652-1.894,6.133,6.133,0,0,0-2.311-1.5l-5.214-2.33A13.329,13.329,0,0,1,282.445,99a7.688,7.688,0,0,1-1.6-4.838,7.3,7.3,0,0,1,2.723-5.754,9.829,9.829,0,0,1,3.117-1.678,12.567,12.567,0,0,1,4.025-.626,11.311,11.311,0,0,1,4.464.81A9.745,9.745,0,0,1,298.335,89a8.29,8.29,0,0,1,1.875,2.9,8.969,8.969,0,0,1,.614,3.2H295.58a3.836,3.836,0,0,0-.2-.887,4.026,4.026,0,0,0-.731-1.323,4.732,4.732,0,0,0-1.479-1.184,6.194,6.194,0,0,0-5.6.336,2.558,2.558,0,0,0-1.127,2.112,2.5,2.5,0,0,0,.791,1.9,7.684,7.684,0,0,0,2.052,1.343l5.332,2.448a14.323,14.323,0,0,1,5.154,3.6,7.509,7.509,0,0,1,1.678,4.975,7.305,7.305,0,0,1-.808,3.517,7.449,7.449,0,0,1-2.194,2.508,9.659,9.659,0,0,1-3.217,1.5,14.82,14.82,0,0,1-3.843.494Z" transform="translate(-213.715 -65.562)" fill="#2da0e3"/>
    <path id="Path_288" data-name="Path 288" d="M391.985,109.131v8.808H386.62V88.909h10.349a9.961,9.961,0,0,1,3.948.791,10.113,10.113,0,0,1,0,18.649,9.961,9.961,0,0,1-3.948.789Zm4.581-4.66a5.274,5.274,0,0,0,2.131-.436,5.493,5.493,0,0,0,1.738-1.165,5.586,5.586,0,0,0,1.165-1.719,5.212,5.212,0,0,0,.434-2.131A5.274,5.274,0,0,0,401.6,96.9a5.411,5.411,0,0,0-2.9-2.9,5.274,5.274,0,0,0-2.112-.436h-4.6v10.9Z" transform="translate(-294.208 -67.699)" fill="#2da0e3"/>
    <path id="Path_289" data-name="Path 289" d="M484.65,93.57V88.91h15.717v4.66h-5.054v19.709h5.054v4.66H484.65v-4.66H489.7V93.57Z" transform="translate(-368.795 -67.699)" fill="#2da0e3"/>
    <path id="Path_290" data-name="Path 290" d="M591.632,88.91H597v28.833l-.479.24-19.553-17.46V117.94H571.6V89.109l.434-.2,19.591,17.458Z" transform="translate(-435.011 -67.699)" fill="#2da0e3"/>
    <path id="Path_291" data-name="Path 291" d="M696.651,96.1h-.561V93.07h1.3a.944.944,0,0,1,.676.278.971.971,0,0,1,.281.676.939.939,0,0,1-.494.837l.46,1.244h-.595l-.415-1.134h-.652Zm.678-1.613a.448.448,0,0,0,.328-.137.526.526,0,0,0,.1-.149.461.461,0,0,0,.036-.18.478.478,0,0,0-.036-.185.455.455,0,0,0-.1-.146.5.5,0,0,0-.146-.1.458.458,0,0,0-.182-.036h-.678v.933Z" transform="translate(-529.657 -70.819)" fill="#2da0e3"/>
    <path id="Path_292" data-name="Path 292" d="M691.3,93.783a2.767,2.767,0,1,1,2.766-2.764,2.767,2.767,0,0,1-2.766,2.764Zm0-5.034a2.273,2.273,0,1,0,2.273,2.273,2.273,2.273,0,0,0-2.273-2.273Z" transform="translate(-523.909 -67.154)" fill="#2da0e3"/>
    <path id="Path_293" data-name="Path 293" d="M44.983,91.728a24.431,24.431,0,0,1-4.529-22.056C43.811,57.554,54.977,50.628,65.893,54.09c8.65,2.723,14.233,10.994,12.409,20.2-1.561,6.144-5.488,10.908-11.474,11.946-6.087,1.026-12.227-2.6-13.931-8.29-1.834-6.087,1.8-13,8.2-13.545,4.883-.269,9.141,3.682,8.441,8.467-.463,3.093-3.009,5.6-5.9,5.209a4.03,4.03,0,0,1-3.064-2.028,3.948,3.948,0,0,0,3.018.455,3.789,3.789,0,0,0,2.637-3.917A4.126,4.126,0,0,0,61.46,68.8c-3.5.664-4.713,4.61-3.63,7.405A6.858,6.858,0,0,0,65.7,80.043c3.236-.808,5.341-3.776,5.924-7.12.791-5.528-2.771-9.98-7.847-11.414-7.329-2.021-13.742,2.968-15.719,10.359C44.8,83.915,55.32,94.085,66.868,94.128c7.4.132,14.559-3.819,19.275-11.562.453-.743.856-1.5,1.237-2.27V56.882L61.7,42.05,36,56.882V86.545Z" transform="translate(-27.37 -32.131)" fill="#2da0e3"/>
    <rect id="Rectangle_617" data-name="Rectangle 617" width="8.935" height="13.538" transform="translate(47.689 3.248)" fill="#2da0e3"/>
    <path id="Path_294" data-name="Path 294" d="M68.576,31.058,34.294,11.34l-.007.007,0-.007L0,31.058,3.584,35.3l30.7-17.661L64.992,35.3Z" transform="translate(0 -8.621)" fill="#113d57"/>
    <path id="Path_295" data-name="Path 295" d="M208.4,14.962V11.34l-8.935,1.613Z" transform="translate(-151.781 -8.621)" opacity="0.27"/>
    <rect id="Rectangle_618" data-name="Rectangle 618" width="12.274" height="4.332" transform="translate(46.02)" fill="#2da0e3"/>
  </g>
</svg>
