<svg xmlns="http://www.w3.org/2000/svg" width="208.991" height="80" viewBox="0 0 208.991 80"><g transform="translate(-51.8 -156.4)"><g transform="translate(138.391 182.98)"><path d="M371.316,289.307a19.234,19.234,0,0,1-4.5-.51,18.661,18.661,0,0,1-3.85-1.359,15.929,15.929,0,0,1-3.085-1.953,9.914,9.914,0,0,1-2.095-2.321L362.909,279a10.361,10.361,0,0,0,3.425,2.576,11.052,11.052,0,0,0,5.01,1.1,7,7,0,0,0,4.246-1.076,3.167,3.167,0,0,0,1.387-2.6,3.7,3.7,0,0,0-.849-2.434,7.791,7.791,0,0,0-2.972-1.925l-6.709-3a16.985,16.985,0,0,1-6.68-4.756,9.992,9.992,0,0,1-2.066-6.228,9.6,9.6,0,0,1,.906-4.133,9.375,9.375,0,0,1,2.6-3.284,12.694,12.694,0,0,1,4.02-2.151,15.791,15.791,0,0,1,5.18-.793,14.363,14.363,0,0,1,5.746,1.047,13.1,13.1,0,0,1,4.076,2.689,10.579,10.579,0,0,1,2.406,3.737,11.348,11.348,0,0,1,.793,4.1h-6.765a4.665,4.665,0,0,0-.255-1.132,5.082,5.082,0,0,0-.934-1.7,6.6,6.6,0,0,0-1.9-1.529,6.469,6.469,0,0,0-3.142-.651,6.553,6.553,0,0,0-4.048,1.1,3.313,3.313,0,0,0-1.444,2.717,3.2,3.2,0,0,0,1.019,2.434,9.869,9.869,0,0,0,2.633,1.727l6.85,3.142a18.527,18.527,0,0,1,6.624,4.614,9.611,9.611,0,0,1,2.151,6.4,9.307,9.307,0,0,1-1.047,4.529,9.974,9.974,0,0,1-2.831,3.227,12.343,12.343,0,0,1-4.133,1.925A19.5,19.5,0,0,1,371.316,289.307Z" transform="translate(-357.7 -250.3)" fill="#2da0e3"/><path d="M480.007,279.243v11.323H473.1V253.2h13.3a12.933,12.933,0,0,1,12,7.926,12.8,12.8,0,0,1,1.019,5.1,12.933,12.933,0,0,1-7.926,12,12.8,12.8,0,0,1-5.1,1.019h-6.4Zm5.888-6a6.772,6.772,0,0,0,2.717-.566,6.9,6.9,0,0,0,2.236-1.5,7.09,7.09,0,0,0,1.5-2.208,6.873,6.873,0,0,0,0-5.463,6.967,6.967,0,0,0-3.737-3.737,6.978,6.978,0,0,0-2.717-.566h-5.888v14.04Z" transform="translate(-440.434 -252.379)" fill="#2da0e3"/><path d="M579.9,259.2v-6h20.24v6h-6.511v25.363h6.511v6H579.9v-6h6.511V259.2Z" transform="translate(-517.002 -252.379)" fill="#2da0e3"/><path d="M700.459,253.2h6.907v37.111l-.623.311-25.137-22.476v22.419H674.7V253.455l.566-.255,25.193,22.448V253.2Z" transform="translate(-584.966 -252.379)" fill="#2da0e3"/></g><path d="M102.549,266.117a31.375,31.375,0,0,1-5.831-28.364c4.3-15.6,18.683-24.514,32.723-20.07,11.125,3.51,18.315,14.154,15.965,25.986-2.01,7.9-7.048,14.04-14.776,15.371-7.841,1.33-15.739-3.34-17.918-10.672-2.349-7.841,2.321-16.729,10.559-17.437,6.284-.34,11.747,4.727,10.87,10.9-.594,3.991-3.878,7.19-7.586,6.709a5.132,5.132,0,0,1-3.935-2.6,5.1,5.1,0,0,0,3.878.594,4.875,4.875,0,0,0,3.4-5.039,5.318,5.318,0,0,0-6.143-4.869c-4.5.849-6.058,5.944-4.671,9.539a8.879,8.879,0,0,0,10.134,4.954c4.161-1.047,6.879-4.869,7.615-9.171,1.019-7.105-3.567-12.851-10.106-14.691-9.426-2.6-17.692,3.821-20.211,13.333-4.189,15.512,9.341,28.59,24.2,28.647,9.511.17,18.739-4.925,24.8-14.89a32.51,32.51,0,0,0,1.585-2.916V221.279L124.034,202.2,91,221.279v38.158Z" transform="translate(-28.104 -32.835)" fill="#2da0e3"/><rect width="11.493" height="17.409" transform="translate(113.311 160.561)" fill="#2da0e3"/><path d="M140.033,194.063,95.931,168.7H95.9L51.8,194.063l4.614,5.463,39.488-22.7,39.517,22.7Z" transform="translate(0 -8.818)" fill="#113d57"/><path d="M280.593,173.371V168.7L269.1,170.766Z" transform="translate(-155.789 -8.818)" fill="#021e28" opacity="0.27"/><rect width="15.795" height="5.577" transform="translate(111.16 156.4)" fill="#2da0e3"/><g transform="translate(138.533 224.054)"><path d="M359.021,397.963a.784.784,0,0,1-.255-.028,1.955,1.955,0,0,1-.226-.085c-.057-.028-.142-.085-.2-.113-.057-.057-.113-.085-.142-.142l.255-.226a1.573,1.573,0,0,0,.226.17.56.56,0,0,0,.311.057.508.508,0,0,0,.311-.085.287.287,0,0,0,.113-.2.3.3,0,0,0-.057-.17c-.028-.057-.113-.085-.226-.142l-.425-.2a1.1,1.1,0,0,1-.4-.283.569.569,0,0,1-.113-.368.826.826,0,0,1,.057-.255.38.38,0,0,1,.17-.2,1.584,1.584,0,0,1,.226-.142,1.017,1.017,0,0,1,.311-.057,1.056,1.056,0,0,1,.34.057.669.669,0,0,1,.255.17.616.616,0,0,1,.142.226.826.826,0,0,1,.057.255h-.34a.1.1,0,0,0-.028-.085.152.152,0,0,0-.085-.113.619.619,0,0,0-.142-.085.577.577,0,0,0-.481.057.287.287,0,0,0-.113.2.239.239,0,0,0,.057.17.456.456,0,0,0,.2.113l.425.2a1.1,1.1,0,0,1,.4.283.6.6,0,0,1,.142.368.566.566,0,0,1-.057.255.381.381,0,0,1-.17.2.7.7,0,0,1-.255.113A.423.423,0,0,1,359.021,397.963Z" transform="translate(-358.2 -395.472)" fill="#2da0e3"/><path d="M365.568,397.557v.708H365.2V396h.793a1.017,1.017,0,0,1,.311.057.668.668,0,0,1,.255.17.412.412,0,0,1,.17.255,1.017,1.017,0,0,1,.057.311,1.2,1.2,0,0,1-.057.311.668.668,0,0,1-.17.255.412.412,0,0,1-.255.17,1.017,1.017,0,0,1-.311.057h-.425Zm.4-.311a.482.482,0,0,0,.2-.028.283.283,0,0,0,.142-.113c.028-.057.085-.085.113-.142a.42.42,0,0,0,.028-.2.482.482,0,0,0-.028-.2.282.282,0,0,0-.113-.142.618.618,0,0,0-.142-.113.42.42,0,0,0-.2-.028h-.425v.962Z" transform="translate(-363.219 -395.83)" fill="#2da0e3"/><path d="M371.6,396.311V396h1.189v.311h-.4v1.67h.4v.311H371.6v-.311h.4v-1.67Z" transform="translate(-367.807 -395.83)" fill="#2da0e3"/><path d="M378.714,395.928h.368v2.265h-.028l-1.585-1.5v1.5H377.1v-2.265l.028-.028,1.585,1.5v-1.472Z" transform="translate(-371.75 -395.758)" fill="#2da0e3"/><path d="M385.557,403.064l.142-.311a.156.156,0,0,1-.142-.085c-.028-.057-.057-.085-.057-.142a.4.4,0,0,1,.057-.17.208.208,0,0,1,.17-.057c.057,0,.085,0,.113.028l.085.085a.17.17,0,0,1,.028.113.308.308,0,0,1-.028.142l-.226.481Z" transform="translate(-377.772 -400.347)" fill="#2da0e3"/><path d="M392.421,397.963a.784.784,0,0,1-.255-.028,1.952,1.952,0,0,1-.226-.085c-.057-.028-.142-.085-.2-.113-.057-.057-.113-.085-.142-.142l.255-.226a1.571,1.571,0,0,0,.226.17.56.56,0,0,0,.311.057.508.508,0,0,0,.311-.085.287.287,0,0,0,.113-.2.3.3,0,0,0-.057-.17c-.028-.057-.113-.085-.226-.142l-.425-.2a1.1,1.1,0,0,1-.4-.283.569.569,0,0,1-.113-.368.826.826,0,0,1,.057-.255.381.381,0,0,1,.17-.2,1.582,1.582,0,0,1,.226-.142,1.017,1.017,0,0,1,.311-.057,1.055,1.055,0,0,1,.34.057.669.669,0,0,1,.255.17.617.617,0,0,1,.142.226.826.826,0,0,1,.057.255h-.34a.1.1,0,0,0-.028-.085.152.152,0,0,0-.085-.113.619.619,0,0,0-.142-.085.577.577,0,0,0-.481.057.287.287,0,0,0-.113.2.239.239,0,0,0,.057.17.456.456,0,0,0,.2.113l.425.2a1.1,1.1,0,0,1,.4.283.6.6,0,0,1,.142.368.566.566,0,0,1-.057.255.381.381,0,0,1-.17.2.7.7,0,0,1-.255.113A.423.423,0,0,1,392.421,397.963Z" transform="translate(-382.145 -395.472)" fill="#2da0e3"/><path d="M398.6,396h1.387v.311h-1.019v.651h.906v.311h-.906v.679h1.019v.311H398.6Z" transform="translate(-387.164 -395.83)" fill="#2da0e3"/><path d="M406.061,398.265H404.9V396h.368v1.981h.793Z" transform="translate(-391.681 -395.83)" fill="#2da0e3"/><path d="M410.2,396h1.387v.311h-1.019v.651h.906v.311h-.906v.679h1.019v.311H410.2Z" transform="translate(-395.48 -395.83)" fill="#2da0e3"/><path d="M416.468,397.132a1.422,1.422,0,0,0,.057.34.988.988,0,0,0,.17.255.669.669,0,0,0,.255.17,1.218,1.218,0,0,0,.34.057,1.018,1.018,0,0,0,.311-.057,1.991,1.991,0,0,0,.255-.17l.226.255a1.077,1.077,0,0,1-.368.255,1.25,1.25,0,0,1-.906,0,1.251,1.251,0,0,1-.623-.623,1.251,1.251,0,0,1,0-.906,1.251,1.251,0,0,1,.623-.623,1.282,1.282,0,0,1,.453-.085,1.174,1.174,0,0,1,.453.085,1.077,1.077,0,0,1,.368.255l-.226.255a.669.669,0,0,0-.255-.17.56.56,0,0,0-.311-.057,1.42,1.42,0,0,0-.34.057.576.576,0,0,0-.255.17.669.669,0,0,0-.17.255A.711.711,0,0,0,416.468,397.132Z" transform="translate(-399.71 -395.83)" fill="#2da0e3"/><path d="M425.314,396v.311h-.623v1.981h-.368v-1.981H423.7V396Z" transform="translate(-405.159 -395.83)" fill="#2da0e3"/><path d="M435.281,396.589v.085a1.67,1.67,0,0,1-.057.4.877.877,0,0,1-.17.368l.34.368v.028h-.368l-.17-.17a2.49,2.49,0,0,1-.283.17,1.671,1.671,0,0,1-.4.057,1.435,1.435,0,0,1-.368-.057.587.587,0,0,1-.283-.17.44.44,0,0,1-.17-.226,1.007,1.007,0,0,1-.057-.283.3.3,0,0,1,.057-.226c.028-.057.057-.142.113-.17.057-.057.113-.085.17-.142a1.38,1.38,0,0,1,.2-.085l-.028-.028a.617.617,0,0,1-.142-.226.4.4,0,0,1-.028-.255.666.666,0,0,1,.057-.226.71.71,0,0,1,.113-.2,1.2,1.2,0,0,1,.2-.142.837.837,0,0,1,.283-.057,1.017,1.017,0,0,1,.311.057.617.617,0,0,1,.226.142.861.861,0,0,1,.142.2.624.624,0,0,1,.028.226h-.34a.17.17,0,0,0-.028-.113.215.215,0,0,0-.057-.113.391.391,0,0,0-.113-.085.255.255,0,0,0-.142-.028.321.321,0,0,0-.226.085.257.257,0,0,0-.085.2.405.405,0,0,0,.113.283l.793.878a.97.97,0,0,0,.113-.51v-.085h.255Zm-1.1.962a.783.783,0,0,0,.453-.142l-.623-.679a.533.533,0,0,0-.255.113.393.393,0,0,0-.085.425.283.283,0,0,0,.113.142l.17.085A.34.34,0,0,0,434.177,397.551Z" transform="translate(-412.041 -395.4)" fill="#2da0e3"/><path d="M445.368,397.557v.708H445V396h.793a1.017,1.017,0,0,1,.311.057.668.668,0,0,1,.255.17.412.412,0,0,1,.17.255,1.017,1.017,0,0,1,.057.311,1.2,1.2,0,0,1-.057.311.668.668,0,0,1-.17.255.412.412,0,0,1-.255.17,1.017,1.017,0,0,1-.311.057h-.425Zm.425-.311a.482.482,0,0,0,.2-.028.283.283,0,0,0,.142-.113c.028-.057.085-.085.113-.142a.42.42,0,0,0,.028-.2.482.482,0,0,0-.028-.2.282.282,0,0,0-.113-.142.617.617,0,0,0-.142-.113.42.42,0,0,0-.2-.028h-.425v.962Z" transform="translate(-420.429 -395.83)" fill="#2da0e3"/><path d="M451.968,398.265H451.6V396h.962a1.006,1.006,0,0,1,.283.057.594.594,0,0,1,.368.368.837.837,0,0,1,.057.283.65.65,0,0,1-.113.4.8.8,0,0,1-.283.255l.368.934h-.368l-.34-.849h-.566Zm.566-1.161a.359.359,0,0,0,.17-.028c.057-.028.085-.057.142-.085a.617.617,0,0,0,.085-.142.523.523,0,0,0,0-.34c-.028-.057-.057-.085-.085-.142a.618.618,0,0,0-.142-.085.359.359,0,0,0-.17-.028h-.566v.821h.566Z" transform="translate(-425.161 -395.83)" fill="#2da0e3"/><path d="M458.6,397.061a1.174,1.174,0,0,1,.085-.453,1.251,1.251,0,0,1,.623-.623,1.25,1.25,0,0,1,.906,0,1.251,1.251,0,0,1,.623.623,1.251,1.251,0,0,1,0,.906,1.251,1.251,0,0,1-.623.623,1.251,1.251,0,0,1-.906,0,1.251,1.251,0,0,1-.623-.623A1.282,1.282,0,0,1,458.6,397.061Zm.368,0a1.018,1.018,0,0,0,.057.311,1.33,1.33,0,0,0,.17.255.669.669,0,0,0,.255.17.56.56,0,0,0,.311.057,1.018,1.018,0,0,0,.311-.057.8.8,0,0,0,.255-.17.669.669,0,0,0,.17-.255.885.885,0,0,0,0-.623,1.329,1.329,0,0,0-.17-.255.668.668,0,0,0-.255-.17.56.56,0,0,0-.311-.057,1.018,1.018,0,0,0-.311.057,1.329,1.329,0,0,0-.255.17.669.669,0,0,0-.17.255A.56.56,0,0,0,458.968,397.061Z" transform="translate(-430.18 -395.758)" fill="#2da0e3"/><path d="M468.813,396v.311h-.623v1.981h-.368v-1.981H467.2V396Z" transform="translate(-436.345 -395.83)" fill="#2da0e3"/><path d="M474.1,396h1.387v.311h-1.019v.651h.906v.311h-.906v.679h1.019v.311H474.1Z" transform="translate(-441.292 -395.83)" fill="#2da0e3"/><path d="M480.368,397.132a1.422,1.422,0,0,0,.057.34.988.988,0,0,0,.17.255.669.669,0,0,0,.255.17,1.056,1.056,0,0,0,.34.057,1.018,1.018,0,0,0,.311-.057,1.987,1.987,0,0,0,.255-.17l.226.255a1.077,1.077,0,0,1-.368.255,1.25,1.25,0,0,1-.906,0,1.251,1.251,0,0,1-.623-.623,1.251,1.251,0,0,1,0-.906,1.251,1.251,0,0,1,.623-.623,1.282,1.282,0,0,1,.453-.085,1.174,1.174,0,0,1,.453.085,1.077,1.077,0,0,1,.368.255l-.226.255a.668.668,0,0,0-.255-.17.56.56,0,0,0-.311-.057,1.42,1.42,0,0,0-.34.057.576.576,0,0,0-.255.17.669.669,0,0,0-.17.255A.424.424,0,0,0,480.368,397.132Z" transform="translate(-445.522 -395.83)" fill="#2da0e3"/><path d="M489.214,396v.311h-.623v1.981h-.368v-1.981H487.6V396Z" transform="translate(-450.971 -395.83)" fill="#2da0e3"/><path d="M497.3,396.311V396h1.189v.311h-.4v1.67h.4v.311H497.3v-.311h.4v-1.67Z" transform="translate(-457.925 -395.83)" fill="#2da0e3"/><path d="M504.513,396h.368v2.265l-.028.028-1.585-1.5v1.5H502.9v-2.265l.028-.028,1.585,1.5Z" transform="translate(-461.94 -395.83)" fill="#2da0e3"/><path d="M512.121,397.963a.784.784,0,0,1-.255-.028,1.957,1.957,0,0,1-.226-.085c-.057-.028-.142-.085-.2-.113-.057-.057-.113-.085-.142-.142l.255-.226a1.571,1.571,0,0,0,.226.17.56.56,0,0,0,.311.057.508.508,0,0,0,.311-.085.286.286,0,0,0,.113-.2.3.3,0,0,0-.057-.17c-.028-.057-.113-.085-.226-.142l-.425-.2a1.1,1.1,0,0,1-.4-.283.569.569,0,0,1-.113-.368.827.827,0,0,1,.057-.255.381.381,0,0,1,.17-.2,1.584,1.584,0,0,1,.226-.142,1.017,1.017,0,0,1,.311-.057,1.055,1.055,0,0,1,.34.057.668.668,0,0,1,.255.17.615.615,0,0,1,.142.226.826.826,0,0,1,.057.255h-.34a.1.1,0,0,0-.028-.085.152.152,0,0,0-.085-.113.618.618,0,0,0-.141-.085.577.577,0,0,0-.481.057.287.287,0,0,0-.113.2.239.239,0,0,0,.057.17.456.456,0,0,0,.2.113l.425.2a1.1,1.1,0,0,1,.4.283.6.6,0,0,1,.142.368.565.565,0,0,1-.057.255.38.38,0,0,1-.17.2.7.7,0,0,1-.255.113A.423.423,0,0,1,512.121,397.963Z" transform="translate(-467.962 -395.472)" fill="#2da0e3"/><path d="M518.268,397.3a.676.676,0,0,0,.057.255.508.508,0,0,0,.142.2.86.86,0,0,0,.2.142.6.6,0,0,0,.51,0,.508.508,0,0,0,.2-.142.862.862,0,0,0,.142-.2.828.828,0,0,0,.057-.255V396h.368v1.3a.9.9,0,0,1-.085.4.8.8,0,0,1-.226.311,1.257,1.257,0,0,1-.311.226.967.967,0,0,1-.793,0,.8.8,0,0,1-.311-.226,1.255,1.255,0,0,1-.226-.311.9.9,0,0,1-.085-.4V396h.368Z" transform="translate(-472.694 -395.83)" fill="#2da0e3"/><path d="M526.768,398.265H526.4V396h.962a1,1,0,0,1,.283.057.594.594,0,0,1,.368.368.839.839,0,0,1,.057.283.65.65,0,0,1-.113.4.8.8,0,0,1-.283.255l.368.934h-.368l-.34-.849h-.566Zm.566-1.161a.359.359,0,0,0,.17-.028c.057-.028.085-.057.142-.085a.616.616,0,0,0,.085-.142.523.523,0,0,0,0-.34c-.028-.057-.057-.085-.085-.142a.617.617,0,0,0-.142-.085.359.359,0,0,0-.17-.028h-.566v.821h.566Z" transform="translate(-478.787 -395.83)" fill="#2da0e3"/><path d="M534.855,398.265l-.17-.453h-1.047l-.17.453H533.1l.906-2.265h.34l.906,2.265Zm-.679-1.783-.4,1.019h.821Z" transform="translate(-483.591 -395.83)" fill="#2da0e3"/><path d="M543.114,396h.368v2.265l-.028.028-1.585-1.5v1.5H541.5v-2.265l.028-.028,1.585,1.5Z" transform="translate(-489.613 -395.83)" fill="#2da0e3"/><path d="M550.268,397.132a1.42,1.42,0,0,0,.057.34.988.988,0,0,0,.17.255.669.669,0,0,0,.255.17,1.218,1.218,0,0,0,.34.057,1.018,1.018,0,0,0,.311-.057,1.99,1.99,0,0,0,.255-.17l.226.255a1.077,1.077,0,0,1-.368.255,1.25,1.25,0,0,1-.906,0,1.251,1.251,0,0,1-.623-.623,1.251,1.251,0,0,1,0-.906,1.251,1.251,0,0,1,.623-.623,1.282,1.282,0,0,1,.453-.085,1.173,1.173,0,0,1,.453.085,1.077,1.077,0,0,1,.368.255l-.226.255a.669.669,0,0,0-.255-.17.56.56,0,0,0-.311-.057,1.42,1.42,0,0,0-.34.057.576.576,0,0,0-.255.17.668.668,0,0,0-.17.255A.424.424,0,0,0,550.268,397.132Z" transform="translate(-495.635 -395.83)" fill="#2da0e3"/><path d="M558.3,396h1.387v.311h-1.019v.651h.906v.311h-.906v.679h1.019v.311H558.3Z" transform="translate(-501.657 -395.83)" fill="#2da0e3"/><path d="M569.513,396h.368v2.265l-.028.028-1.585-1.5v1.5H567.9v-2.265l.028-.028,1.585,1.5Z" transform="translate(-508.54 -395.83)" fill="#2da0e3"/><path d="M576.5,396h1.387v.311h-1.019v.651h.906v.311h-.906v.679h1.019v.311H576.5Z" transform="translate(-514.706 -395.83)" fill="#2da0e3"/><path d="M583.714,396v.311h-.623v1.981h-.368v-1.981H582.1V396Z" transform="translate(-518.72 -395.83)" fill="#2da0e3"/><path d="M590.253,397.8h.028l.368-1.9h.368l-.453,2.265h-.538l-.34-1.67h-.057l-.34,1.67h-.538L588.3,395.9h.368l.368,1.9h.028l.4-1.9h.425Z" transform="translate(-523.165 -395.758)" fill="#2da0e3"/><path d="M598,397.061a1.173,1.173,0,0,1,.085-.453,1.251,1.251,0,0,1,.623-.623,1.25,1.25,0,0,1,.906,0,1.251,1.251,0,0,1,.623.623,1.251,1.251,0,0,1,0,.906,1.251,1.251,0,0,1-.623.623,1.251,1.251,0,0,1-.906,0,1.251,1.251,0,0,1-.623-.623A1.281,1.281,0,0,1,598,397.061Zm.368,0a1.018,1.018,0,0,0,.057.311,1.327,1.327,0,0,0,.17.255.668.668,0,0,0,.255.17.56.56,0,0,0,.311.057,1.018,1.018,0,0,0,.311-.057.8.8,0,0,0,.255-.17.669.669,0,0,0,.17-.255.885.885,0,0,0,0-.623,1.332,1.332,0,0,0-.17-.255.669.669,0,0,0-.255-.17.56.56,0,0,0-.311-.057,1.018,1.018,0,0,0-.311.057,1.328,1.328,0,0,0-.255.17.667.667,0,0,0-.17.255A1.017,1.017,0,0,0,598.368,397.061Z" transform="translate(-530.12 -395.758)" fill="#2da0e3"/><path d="M607.868,398.265H607.5V396h.962a1,1,0,0,1,.283.057.594.594,0,0,1,.368.368.837.837,0,0,1,.057.283.65.65,0,0,1-.113.4.8.8,0,0,1-.283.255l.368.934h-.368l-.34-.849h-.566Zm.566-1.161a.359.359,0,0,0,.17-.028c.057-.028.085-.057.141-.085a.618.618,0,0,0,.085-.142.523.523,0,0,0,0-.34c-.028-.057-.057-.085-.085-.142a.617.617,0,0,0-.141-.085.359.359,0,0,0-.17-.028h-.566v.821h.566Z" transform="translate(-536.93 -395.83)" fill="#2da0e3"/><path d="M615.24,397.274v.991h-.34V396h.34v.962h.51l.566-.962h.4l-.651,1.132.679,1.161h-.4l-.566-.991h-.538Z" transform="translate(-542.236 -395.83)" fill="#2da0e3"/><path d="M622.357,403.064l.142-.311a.156.156,0,0,1-.142-.085c-.028-.057-.057-.085-.057-.142a.4.4,0,0,1,.057-.17.208.208,0,0,1,.17-.057c.057,0,.085,0,.113.028l.085.085a.17.17,0,0,1,.028.113.308.308,0,0,1-.028.142l-.226.481Z" transform="translate(-547.541 -400.347)" fill="#2da0e3"/><path d="M629.783,398.265l-.17-.453h-1.047l-.17.453H628l.906-2.265h.34l.906,2.265Zm-.708-1.783-.4,1.019h.821Z" transform="translate(-551.627 -395.83)" fill="#2da0e3"/><path d="M641.614,396h.368v2.265l-.028.028-1.585-1.5v1.5H640v-2.265l.028-.028,1.585,1.5V396Z" transform="translate(-560.231 -395.83)" fill="#2da0e3"/><path d="M648.7,396h1.387v.311h-1.019v.651h.906v.311h-.906v.679h1.019v.311H648.7Z" transform="translate(-566.468 -395.83)" fill="#2da0e3"/><path d="M656.425,397.8h.028l.368-1.9h.368l-.453,2.265H656.2l-.34-1.67h-.028l-.34,1.67h-.538L654.5,395.9h.368l.368,1.9h.028l.4-1.9h.425Z" transform="translate(-570.626 -395.758)" fill="#2da0e3"/><path d="M668.821,397.963a.784.784,0,0,1-.255-.028,1.955,1.955,0,0,1-.226-.085c-.057-.028-.142-.085-.2-.113-.057-.057-.113-.085-.142-.142l.255-.226a1.566,1.566,0,0,0,.226.17.56.56,0,0,0,.311.057.508.508,0,0,0,.311-.085.286.286,0,0,0,.113-.2.3.3,0,0,0-.057-.17c-.028-.057-.113-.085-.226-.142l-.425-.2a1.1,1.1,0,0,1-.4-.283.569.569,0,0,1-.113-.368.826.826,0,0,1,.057-.255.381.381,0,0,1,.17-.2,1.585,1.585,0,0,1,.226-.142,1.018,1.018,0,0,1,.311-.057,1.055,1.055,0,0,1,.34.057.668.668,0,0,1,.255.17.616.616,0,0,1,.142.226.828.828,0,0,1,.057.255h-.34a.1.1,0,0,0-.028-.085.152.152,0,0,0-.085-.113.618.618,0,0,0-.141-.085.577.577,0,0,0-.481.057.287.287,0,0,0-.113.2.239.239,0,0,0,.057.17.456.456,0,0,0,.2.113l.425.2a1.1,1.1,0,0,1,.4.283.6.6,0,0,1,.142.368.566.566,0,0,1-.057.255.381.381,0,0,1-.17.2.7.7,0,0,1-.255.113A.478.478,0,0,1,668.821,397.963Z" transform="translate(-580.305 -395.472)" fill="#2da0e3"/><path d="M675.34,397.557v.708H675V396h.793a1.018,1.018,0,0,1,.311.057.669.669,0,0,1,.255.17.412.412,0,0,1,.17.255,1.017,1.017,0,0,1,.057.311,1.2,1.2,0,0,1-.057.311.509.509,0,0,1-.17.255.412.412,0,0,1-.255.17,1.018,1.018,0,0,1-.311.057h-.453Zm.425-.311a.482.482,0,0,0,.2-.028.283.283,0,0,0,.142-.113.617.617,0,0,0,.113-.142.42.42,0,0,0,.028-.2.482.482,0,0,0-.028-.2.282.282,0,0,0-.113-.142.619.619,0,0,0-.142-.113.42.42,0,0,0-.2-.028h-.425v.962Z" transform="translate(-585.323 -395.83)" fill="#2da0e3"/><path d="M681.3,396.311V396h1.189v.311h-.4v1.67h.4v.311H681.3v-.311h.4v-1.67Z" transform="translate(-589.84 -395.83)" fill="#2da0e3"/><path d="M688.514,396h.368v2.265l-.028.028-1.585-1.5v1.5H686.9v-2.265l.028-.028,1.585,1.5Z" transform="translate(-593.855 -395.83)" fill="#2da0e3"/><path d="M698.6,397.061a1.174,1.174,0,0,1,.085-.453,1.251,1.251,0,0,1,.623-.623,1.25,1.25,0,0,1,.906,0,1.251,1.251,0,0,1,.623.623,1.251,1.251,0,0,1,0,.906,1.251,1.251,0,0,1-.623.623,1.251,1.251,0,0,1-.906,0,1.251,1.251,0,0,1-.623-.623A1.283,1.283,0,0,1,698.6,397.061Zm.368,0a1.018,1.018,0,0,0,.057.311,1.327,1.327,0,0,0,.17.255.668.668,0,0,0,.255.17.56.56,0,0,0,.311.057,1.018,1.018,0,0,0,.311-.057.8.8,0,0,0,.255-.17.669.669,0,0,0,.17-.255.885.885,0,0,0,0-.623,1.332,1.332,0,0,0-.17-.255.669.669,0,0,0-.255-.17.56.56,0,0,0-.311-.057,1.018,1.018,0,0,0-.311.057,1.328,1.328,0,0,0-.255.17.667.667,0,0,0-.17.255A.56.56,0,0,0,698.968,397.061Z" transform="translate(-602.243 -395.758)" fill="#2da0e3"/><path d="M709.714,396h.368v2.265l-.028.028-1.585-1.5v1.5H708.1v-2.265l.028-.028,1.585,1.5Z" transform="translate(-609.053 -395.83)" fill="#2da0e3"/><path d="M719.8,396.311V396h1.189v.311h-.4v1.67h.4v.311H719.8v-.311h.4v-1.67Z" transform="translate(-617.441 -395.83)" fill="#2da0e3"/><path d="M727.013,396h.368v2.265l-.028.028-1.585-1.5v1.5H725.4v-2.265l.028-.028,1.585,1.5Z" transform="translate(-621.456 -395.83)" fill="#2da0e3"/><path d="M734.621,397.963a.784.784,0,0,1-.255-.028,1.959,1.959,0,0,1-.226-.085c-.057-.028-.142-.085-.2-.113-.057-.057-.113-.085-.142-.142l.255-.226a1.573,1.573,0,0,0,.227.17.56.56,0,0,0,.311.057.508.508,0,0,0,.311-.085.287.287,0,0,0,.113-.2.3.3,0,0,0-.057-.17c-.028-.057-.113-.085-.226-.142l-.425-.2a1.1,1.1,0,0,1-.4-.283.569.569,0,0,1-.113-.368.826.826,0,0,1,.057-.255.38.38,0,0,1,.17-.2,1.585,1.585,0,0,1,.226-.142,1.018,1.018,0,0,1,.311-.057,1.056,1.056,0,0,1,.34.057.669.669,0,0,1,.255.17.616.616,0,0,1,.141.226.826.826,0,0,1,.057.255h-.34a.1.1,0,0,0-.028-.085.152.152,0,0,0-.085-.113.62.62,0,0,0-.142-.085.577.577,0,0,0-.481.057.287.287,0,0,0-.113.2.239.239,0,0,0,.057.17.456.456,0,0,0,.2.113l.425.2a1.1,1.1,0,0,1,.4.283.6.6,0,0,1,.142.368.565.565,0,0,1-.057.255.38.38,0,0,1-.17.2.7.7,0,0,1-.255.113A.478.478,0,0,1,734.621,397.963Z" transform="translate(-627.478 -395.472)" fill="#2da0e3"/><path d="M740.668,397.3a.676.676,0,0,0,.057.255.508.508,0,0,0,.142.2.861.861,0,0,0,.2.142.6.6,0,0,0,.51,0,.507.507,0,0,0,.2-.142.86.86,0,0,0,.142-.2.826.826,0,0,0,.057-.255V396h.368v1.3a.9.9,0,0,1-.085.4.8.8,0,0,1-.226.311,1.258,1.258,0,0,1-.311.226.967.967,0,0,1-.793,0,.8.8,0,0,1-.311-.226,1.258,1.258,0,0,1-.226-.311.9.9,0,0,1-.085-.4V396h.368Z" transform="translate(-632.139 -395.83)" fill="#2da0e3"/><path d="M749.268,398.265H748.9V396h.962a1,1,0,0,1,.283.057.594.594,0,0,1,.368.368.839.839,0,0,1,.057.283.65.65,0,0,1-.113.4.8.8,0,0,1-.283.255l.368.934h-.368l-.34-.849h-.566Zm.566-1.161a.359.359,0,0,0,.17-.028c.057-.028.085-.057.142-.085a.618.618,0,0,0,.085-.142.524.524,0,0,0,0-.34c-.028-.057-.057-.085-.085-.142a.617.617,0,0,0-.142-.085.359.359,0,0,0-.17-.028h-.566v.821h.566Z" transform="translate(-638.304 -395.83)" fill="#2da0e3"/><path d="M757.427,398.265l-.17-.453h-1.019l-.17.453H755.7l.906-2.265h.34l.906,2.265Zm-.708-1.783-.4,1.019h.821Z" transform="translate(-643.179 -395.83)" fill="#2da0e3"/><path d="M765.614,396h.368v2.265l-.028.028-1.585-1.5v1.5H764v-2.265l.028-.028,1.585,1.5Z" transform="translate(-649.13 -395.83)" fill="#2da0e3"/><path d="M772.668,397.132a1.42,1.42,0,0,0,.057.34.988.988,0,0,0,.17.255.669.669,0,0,0,.255.17,1.217,1.217,0,0,0,.34.057,1.018,1.018,0,0,0,.311-.057,1.99,1.99,0,0,0,.255-.17l.226.255a1.077,1.077,0,0,1-.368.255,1.25,1.25,0,0,1-.906,0,1.251,1.251,0,0,1-.623-.623,1.25,1.25,0,0,1,0-.906,1.251,1.251,0,0,1,.623-.623,1.282,1.282,0,0,1,.453-.085,1.174,1.174,0,0,1,.453.085,1.077,1.077,0,0,1,.368.255l-.226.255a.669.669,0,0,0-.255-.17.56.56,0,0,0-.311-.057,1.42,1.42,0,0,0-.34.057.576.576,0,0,0-.255.17.668.668,0,0,0-.17.255A.71.71,0,0,0,772.668,397.132Z" transform="translate(-655.08 -395.83)" fill="#2da0e3"/><path d="M780.8,396h1.387v.311h-1.019v.651h.906v.311h-.906v.679h1.019v.311H780.8Z" transform="translate(-661.174 -395.83)" fill="#2da0e3"/><path d="M787.2,397.751a.4.4,0,0,1,.057-.17.208.208,0,0,1,.17-.057.4.4,0,0,1,.17.057.208.208,0,0,1,.057.17.4.4,0,0,1-.057.17.208.208,0,0,1-.17.057.4.4,0,0,1-.17-.057C787.2,397.893,787.2,397.808,787.2,397.751Zm.085-.538V395.6h.34v1.614Z" transform="translate(-665.763 -395.543)" fill="#2da0e3"/></g></g></svg>