<svg xmlns="http://www.w3.org/2000/svg" width="48.001" height="48" viewBox="0 0 48.001 48">
  <g id="Group_515" data-name="Group 515" transform="translate(-1452.417 -371.21)">
    <rect id="Rectangle_1202" data-name="Rectangle 1202" width="48" height="48" transform="translate(1452.417 371.21)" fill="#fff" opacity="0"/>
    <g id="Group_514" data-name="Group 514" transform="translate(1452.417 378.65)">
      <path id="Path_655" data-name="Path 655" d="M1480.056,382.3h-.062l-11.114,14.344,3.658.071,7.472-9.809,7.5,9.809,3.658-.071Z" transform="translate(-1456.024 -381.66)" fill="#fff" opacity="0.4"/>
      <g id="Group_512" data-name="Group 512" transform="translate(20.498 20.346)" opacity="0.4">
        <g id="Group_511" data-name="Group 511">
          <path id="Path_656" data-name="Path 656" d="M1484.483,414.23v2.257h-7.006V404.469h7.006V411.1" transform="translate(-1477.477 -404.469)" fill="#fff"/>
          <path id="Path_657" data-name="Path 657" d="M1481.418,417.99" transform="translate(-1477.915 -405.971)" fill="#fff"/>
          <path id="Path_658" data-name="Path 658" d="M1481.418,404.677" transform="translate(-1477.915 -404.492)" fill="#fff"/>
          <path id="Path_659" data-name="Path 659" d="M1477.583,409.084" transform="translate(-1477.489 -404.982)" fill="#fff"/>
          <path id="Path_660" data-name="Path 660" d="M1477.583,413.667" transform="translate(-1477.489 -405.491)" fill="#fff"/>
          <path id="Path_661" data-name="Path 661" d="M1485.252,414.74" transform="translate(-1478.34 -405.61)" fill="#fff"/>
        </g>
        <line id="Line_96" data-name="Line 96" y2="1.04" transform="translate(1.811 5.344)" fill="#cc3737"/>
      </g>
      <g id="Group_513" data-name="Group 513">
        <path id="Path_662" data-name="Path 662" d="M1479.433,409.751a.648.648,0,0,0-.648.649v1.04a.648.648,0,1,0,1.3,0V410.4A.649.649,0,0,0,1479.433,409.751Z" transform="translate(-1457.124 -384.71)" fill="#fff"/>
        <path id="Path_663" data-name="Path 663" d="M1464.568,402.6v5.764a.649.649,0,0,0,.649.648h3.18a.649.649,0,0,0,.649-.648V402.6a.649.649,0,0,0-.649-.649h-3.18A.649.649,0,0,0,1464.568,402.6Zm1.3.648h1.883v4.467h-1.883Z" transform="translate(-1455.545 -383.844)" fill="#fff"/>
        <path id="Path_664" data-name="Path 664" d="M1493.186,402.6v5.764a.649.649,0,0,0,.649.648h3.18a.649.649,0,0,0,.649-.648V402.6a.649.649,0,0,0-.649-.649h-3.18A.649.649,0,0,0,1493.186,402.6Zm1.3.648h1.883v4.467h-1.883Z" transform="translate(-1458.724 -383.844)" fill="#fff"/>
        <path id="Path_665" data-name="Path 665" d="M1478.9,395.893v3.38a.648.648,0,0,0,.648.649h3.18a.648.648,0,0,0,.648-.649v-3.38a.648.648,0,0,0-.648-.648h-3.18A.647.647,0,0,0,1478.9,395.893Zm1.3.649h1.882v2.082H1480.2Z" transform="translate(-1457.137 -383.099)" fill="#fff"/>
        <path id="Path_666" data-name="Path 666" d="M1501.77,413.4h-5.115V395.223h3.525a.648.648,0,0,0,.549-.992l-5.962-9.54a.647.647,0,0,0-.55-.3h-13.269l-1.988-2.565a.737.737,0,0,0-1.087,0l-1.988,2.565h-13.268a.647.647,0,0,0-.55.3l-5.963,9.54a.648.648,0,0,0,.549.992h3.525V413.4h-5.115a.648.648,0,1,0,0,1.3h46.7a.648.648,0,0,0,0-1.3Zm-5.764-19.476h-7.666l-1.459-1.883h10.951l1.177,1.883Zm1.016-3.181h-11.145l-1.459-1.882h11.427Zm-3.164-5.062,1.176,1.883h-11.621l-1.459-1.883Zm-32.868,3.181h2.5a.649.649,0,1,0,0-1.3H1461.8l1.176-1.883h11.9l-1.459,1.883h-6.83a.649.649,0,0,0,0,1.3h5.825l-1.459,1.882h-11.145Zm-3.165,5.062,1.177-1.883h10.951l-1.459,1.883h-10.67Zm12.391,19.476h-8.739V395.223h6.012l-.73.942a.649.649,0,0,0,.5,1.045l2.957.058Zm15.1,0h-2.751v-1.715a.649.649,0,0,0-1.3,0V413.3h-5.709V402.575h5.709v5.986a.649.649,0,0,0,1.3,0v-6.635a.649.649,0,0,0-.649-.649h-7.006a.649.649,0,0,0-.649.649V413.4h-2.751V396.936l6.889-9.043,6.917,9.045Zm-6.4-26.972a.574.574,0,0,0-.066-.058.628.628,0,0,0-.057-.065c-.011-.009-.026-.011-.038-.019a.585.585,0,0,0-.118-.057.556.556,0,0,0-.116-.039.644.644,0,0,0-.117-.007.619.619,0,0,0-.128.008.552.552,0,0,0-.109.037.588.588,0,0,0-.122.059c-.012.008-.027.01-.038.019a.563.563,0,0,0-.057.066.49.49,0,0,0-.065.057l-7.273,9.548-2.037-.04,9.841-12.7,9.842,12.7-2.038.04Zm16.439,26.972h-8.738V397.268l2.956-.058a.649.649,0,0,0,.5-1.045l-.73-.942h6.012Z" transform="translate(-1454.417 -381.581)" fill="#fff"/>
      </g>
    </g>
  </g>
</svg>
