<svg xmlns="http://www.w3.org/2000/svg" width="48" height="48" viewBox="0 0 48 48">
  <g id="Group_516" data-name="Group 516" transform="translate(-1452.648 -305.622)">
    <rect id="Rectangle_1191" data-name="Rectangle 1191" width="48" height="48" transform="translate(1452.648 305.622)" fill="#fff" opacity="0"/>
    <g id="Group_491" data-name="Group 491" transform="translate(1454.303 308.223)">
      <g id="Group_490" data-name="Group 490" transform="translate(15.907 22.725)">
        <path id="Path_642" data-name="Path 642" d="M1485.089,351.856v3.615h-11.22V336.225h11.22v10.625" transform="translate(-1473.869 -336.225)" fill="#2699fb"/>
        <path id="Path_643" data-name="Path 643" d="M1480.648,359.48" transform="translate(-1475.038 -340.234)" fill="#2699fb"/>
        <path id="Path_644" data-name="Path 644" d="M1480.648,336.582" transform="translate(-1475.038 -336.286)" fill="#2699fb"/>
        <path id="Path_645" data-name="Path 645" d="M1474.051,344.162" transform="translate(-1473.901 -337.593)" fill="#2699fb"/>
        <path id="Path_646" data-name="Path 646" d="M1474.051,352.046" transform="translate(-1473.901 -338.952)" fill="#2699fb"/>
        <path id="Path_647" data-name="Path 647" d="M1487.244,353.891" transform="translate(-1476.175 -339.27)" fill="#2699fb"/>
      </g>
      <path id="Path_648" data-name="Path 648" d="M1464.454,319.321a.6.6,0,0,0,.374-.131l.464-.367a.6.6,0,1,0-.751-.947l-.463.367a.6.6,0,0,0,.376,1.078Zm22.841,30.812h-4.916v-3.012a.6.6,0,0,0-1.207,0v3.012h-10.012V332.094h10.012v10.021a.6.6,0,1,0,1.207,0V331.49a.6.6,0,0,0-.6-.6h-11.22a.6.6,0,0,0-.6.6v18.643h-8.568v-22.27l14.843-11.49,17.294,13.375a.605.605,0,0,0,.808-.063l3.188-3.366a.606.606,0,0,0-.064-.889L1476.591,308.9a.6.6,0,0,0-.848.1l0,.006-.007,0-9.247,7.331a.6.6,0,0,0,.376,1.078.6.6,0,0,0,.375-.131l8.993-7.13,19.956,15.818-2.359,2.491-17.239-13.334a.6.6,0,0,0-.761.033s-.01,0-.014.007l-17.311,13.4-2.359-2.489,6.681-5.3a.6.6,0,0,0-.75-.947l-7.2,5.707a.6.6,0,0,0-.064.888l3.188,3.366a.6.6,0,0,0,.809.063l1.366-1.058v21.335h-3.944a.6.6,0,1,0,0,1.207h31.063a.6.6,0,0,0,0-1.207Zm9.218-8.22v-1.6l.041-1.886a.6.6,0,0,0-.37-.568l-.265-.29.456-.582a.6.6,0,0,0-.03-.78l-.417-.457.517-.742a.6.6,0,0,0-.1-.805l-1.881-1.607a.6.6,0,0,0-.778,0l-1.6,1.332a.6.6,0,0,0-.218.468l.043,7.55a5.084,5.084,0,0,0-2.671,3.554.6.6,0,1,0,1.186.228,3.883,3.883,0,0,1,2.3-2.84l0,0a.6.6,0,0,0,.4-.565l-.043-7.646.994-.825,1.078.921-.48.689a.6.6,0,0,0,.05.753l.4.436-.456.583a.6.6,0,0,0,.03.78l.66.722-.038,3.581a.6.6,0,0,0,.456.574,3.892,3.892,0,0,1-1.511,7.474h-.01a3.909,3.909,0,0,1-3.645-2.524.6.6,0,0,0-1.131.425,5.123,5.123,0,0,0,4.776,3.307h.013a5.091,5.091,0,0,0,2.26-9.65Zm-2.258,7.345a1.479,1.479,0,0,0,0-2.958h0a1.479,1.479,0,0,0,0,2.958Zm-.276-1.477h0a.271.271,0,0,1,.271-.272h0a.271.271,0,0,1,0,.543h0a.27.27,0,0,1-.271-.27Zm-21.127-7.733v1.666a.6.6,0,0,0,1.207,0v-1.666a.6.6,0,1,0-1.207,0Z" transform="translate(-1454.648 -308.765)" fill="#113d57"/>
    </g>
  </g>
</svg>
